# xmcd
#
# Track frame offsets: 
#        150
#        17518
#        29633
#        55260
#        70058
#        83139
#        94676
#        119031
#        132236
#        151362
#
# Disc length: 2294 seconds
#
# Revision: 0
# Processed by: cddbd v1.5.2PL0 Copyright (c) Steve Scherf et al.
# Submitted via: ExactAudioCopy v0.99pb4
#
DISCID=8108f40a
DTITLE=Carl Holmes And The Commanders - Twist Party at the Roundtable
DYEAR=1962
DGENRE=Soul
TTITLE0=(Do The) Mashed Potatoes
TTITLE1=Ain't Got No Money
TTITLE2=Stand by Me
TTITLE3=New Orleans
TTITLE4=Good Good Lovin'
TTITLE5=I Can't Sit Down
TTITLE6=Lonely Winds
TTITLE7=Twist It Baby
TTITLE8=Roundtable Twist
TTITLE9=Shout
EXTD=
EXTT0=
EXTT1=
EXTT2=
EXTT3=
EXTT4=
EXTT5=
EXTT6=
EXTT7=
EXTT8=
EXTT9=
PLAYORDER=
